<svg xmlns="http://www.w3.org/2000/svg" width="319.5" height="318"><g fill-rule="evenodd" clip-rule="evenodd"><path d="M172.783 9.25c9.205 33.146 18.966 65.735 28.233 98.816-37.036-27.495-66.549-52.066-108.899-84.699 23.085-8.509 46.434-16.754 80.666-14.117zM184.883 11.267c27.115 5.152 49.625 14.908 66.551 30.25-10.58 32.444-19.777 66.55-32.267 96.8-9.288-44.491-25.179-82.378-34.284-127.05zM176.816 102.017c-43.932.232-104.693-.17-155.283 0 10.71-31.641 33.176-51.525 56.467-70.583 39.971 27.709 54.49 38.816 98.816 70.583zM259.5 49.583c19.974 11.62 32 31.917 40.333 54.45-35.224 34.283-48.399 45.361-76.633 70.583 11.521-44.857 21.271-72.525 36.3-125.033zM126.4 112.1c-41.183 39.074-58.35 57.059-106.883 100.834-11.586-26.527-13.737-72.647-2.017-100.834h108.9zM301.85 118.15c9.976 20.695 9.15 48.85 4.033 74.617-34.849 3.169-62.398 4.823-92.766 8.067 34.283-31.334 88.25-79.806 88.733-82.684zM100.184 150.417c-1.009 48.083-3.146 97.685-6.051 143.183-29.838-15.199-52.5-37.578-68.566-66.55 37.579-37.199 49.613-48.36 74.617-76.633zM110.267 188.733c23.042 40.87 42.725 78.275 62.517 118.983-27.51 1.294-50.497-1.936-68.566-10.084 2.925-35.389 4.186-72.443 6.049-108.899zM301.85 202.85c-8.86 28.785-24.313 50.976-44.366 68.567-34.283-18.657-56.467-33.353-92.767-54.45 53.441-7.537 86.717-8.901 137.133-14.117zM134.467 208.9c37.803 22.697 73.777 47.222 112.934 68.566-15.492 15.43-37.939 23.904-64.533 28.233-14.197-34.204-33.581-63.22-48.401-96.799z"/></g><circle cx="165.167" cy="157.941" r="47.25"/></svg>