<?xml version="1.0" encoding="utf-8"?>
<!-- Generator: Adobe Illustrator 15.0.0, SVG Export Plug-In . SVG Version: 6.00 Build 0)  -->
<!DOCTYPE svg PUBLIC "-//W3C//DTD SVG 1.1//EN" "http://www.w3.org/Graphics/SVG/1.1/DTD/svg11.dtd">
<svg version="1.1" id="Layer_1" xmlns="http://www.w3.org/2000/svg" xmlns:xlink="http://www.w3.org/1999/xlink" x="0px" y="0px"
	 width="319.5px" height="318px" viewBox="0 0 319.5 318" enable-background="new 0 0 319.5 318" xml:space="preserve">
<g id="ZHa9E4_1_">
	<g>
		<g>
			<path fill-rule="evenodd" clip-rule="evenodd" d="M172.783,9.25c9.205,33.146,18.966,65.735,28.233,98.816
				C163.98,80.571,134.467,56,92.117,23.367C115.202,14.858,138.551,6.613,172.783,9.25z"/>
			<path fill-rule="evenodd" clip-rule="evenodd" d="M184.883,11.267c27.115,5.152,49.625,14.908,66.551,30.25
				c-10.58,32.444-19.777,66.55-32.267,96.8C209.879,93.826,193.988,55.939,184.883,11.267z"/>
			<path fill-rule="evenodd" clip-rule="evenodd" d="M176.816,102.017c-43.932,0.232-104.693-0.17-155.283,0
				C32.243,70.376,54.709,50.492,78,31.434C117.971,59.143,132.49,70.25,176.816,102.017z"/>
			<path fill-rule="evenodd" clip-rule="evenodd" d="M259.5,49.583c19.974,11.62,32,31.917,40.333,54.45
				c-35.224,34.283-48.399,45.361-76.633,70.583C234.721,129.759,244.471,102.091,259.5,49.583z"/>
			<path fill-rule="evenodd" clip-rule="evenodd" d="M126.4,112.1C85.217,151.174,68.05,169.159,19.517,212.934
				C7.931,186.407,5.78,140.287,17.5,112.1C53.8,112.1,90.1,112.1,126.4,112.1z"/>
			<path fill-rule="evenodd" clip-rule="evenodd" d="M301.85,118.15c9.976,20.695,9.15,48.85,4.033,74.617
				c-34.849,3.169-62.398,4.823-92.766,8.067C247.4,169.5,301.367,121.028,301.85,118.15z"/>
			<path fill-rule="evenodd" clip-rule="evenodd" d="M100.184,150.417c-1.009,48.083-3.146,97.685-6.051,143.183
				c-29.838-15.199-52.5-37.578-68.566-66.55C63.146,189.851,75.18,178.69,100.184,150.417z"/>
			<path fill-rule="evenodd" clip-rule="evenodd" d="M110.267,188.733c23.042,40.87,42.725,78.275,62.517,118.983
				c-27.51,1.294-50.497-1.936-68.566-10.084C107.143,262.243,108.404,225.189,110.267,188.733z"/>
			<path fill-rule="evenodd" clip-rule="evenodd" d="M301.85,202.85c-8.86,28.785-24.313,50.976-44.366,68.567
				c-34.283-18.657-56.467-33.353-92.767-54.45C218.158,209.43,251.434,208.066,301.85,202.85z"/>
			<path fill-rule="evenodd" clip-rule="evenodd" d="M134.467,208.9c37.803,22.697,73.777,47.222,112.934,68.566
				c-15.492,15.43-37.939,23.904-64.533,28.233C168.671,271.495,149.287,242.479,134.467,208.9z"/>
		</g>
	</g>
</g>
<circle cx="165.167" cy="157.941" r="47.25"/>
</svg>
